<svg xmlns="http://www.w3.org/2000/svg" xmlns:xlink="http://www.w3.org/1999/xlink" width="500" zoomAndPan="magnify" viewBox="0 0 375 374.999991" height="500" preserveAspectRatio="xMidYMid meet" version="1.0"><defs><clipPath id="cf664019fb"><path d="M 0 37.5 L 375 37.5 L 375 330.75 L 0 330.75 Z M 0 37.5 " clip-rule="nonzero"/></clipPath><clipPath id="e6ad2ecf96"><path d="M 258 37.5 L 326 37.5 L 326 110 L 258 110 Z M 258 37.5 " clip-rule="nonzero"/></clipPath><clipPath id="d607f9bb5e"><path d="M 49 105 L 325 105 L 325 330.75 L 49 330.75 Z M 49 105 " clip-rule="nonzero"/></clipPath></defs><g clip-path="url(#cf664019fb)"><path fill="#ec6f5e" d="M 357.617188 143.101562 L 305.699219 143.101562 C 306.828125 142.71875 307.898438 142.207031 308.902344 141.59375 C 308.964844 141.558594 309.023438 141.519531 309.09375 141.480469 C 309.375 141.296875 309.660156 141.105469 309.933594 140.90625 C 310.019531 140.84375 310.109375 140.777344 310.195312 140.714844 C 310.460938 140.515625 310.722656 140.308594 310.96875 140.09375 C 311.027344 140.042969 311.082031 139.988281 311.144531 139.933594 C 311.625 139.507812 312.085938 139.046875 312.511719 138.566406 C 312.589844 138.480469 312.664062 138.40625 312.734375 138.320312 C 312.902344 138.121094 313.0625 137.90625 313.222656 137.699219 C 313.347656 137.539062 313.476562 137.378906 313.589844 137.210938 C 313.730469 137.011719 313.867188 136.8125 313.996094 136.613281 C 314.125 136.414062 314.25 136.207031 314.371094 136.003906 C 314.476562 135.8125 314.59375 135.628906 314.691406 135.4375 C 314.84375 135.136719 314.992188 134.839844 315.128906 134.535156 C 315.199219 134.378906 315.265625 134.234375 315.328125 134.074219 C 315.488281 133.691406 315.632812 133.292969 315.753906 132.894531 C 315.808594 132.734375 315.847656 132.582031 315.894531 132.421875 C 315.984375 132.117188 316.0625 131.800781 316.128906 131.488281 C 316.167969 131.320312 316.207031 131.144531 316.238281 130.976562 C 316.296875 130.648438 316.351562 130.316406 316.390625 129.980469 C 316.40625 129.828125 316.429688 129.675781 316.445312 129.515625 C 316.488281 129.023438 316.519531 128.527344 316.519531 128.023438 L 316.519531 111.71875 L 317.03125 111.71875 C 318.753906 111.71875 320.152344 110.320312 320.152344 108.597656 C 320.152344 106.875 318.753906 105.476562 317.03125 105.476562 L 297.828125 105.476562 C 303.074219 98.691406 315.9375 90.695312 321.253906 82.179688 C 327.710938 71.84375 324.820312 55.761719 324.820312 55.761719 C 323.574219 59.753906 321.730469 62.6875 319.496094 65.1875 C 319.519531 65.148438 319.550781 65.117188 319.574219 65.082031 C 316.101562 69.003906 311.664062 71.851562 307.042969 75.984375 C 307.035156 75.992188 307.019531 76.003906 307.011719 76.011719 C 306.53125 76.441406 306.050781 76.894531 305.566406 77.351562 C 305.398438 77.511719 305.238281 77.664062 305.070312 77.828125 C 304.878906 78.011719 304.695312 78.203125 304.503906 78.386719 C 304.265625 78.621094 304.039062 78.859375 303.800781 79.105469 C 303.648438 79.265625 303.496094 79.417969 303.339844 79.585938 C 302.96875 79.992188 302.585938 80.40625 302.210938 80.832031 C 302.109375 80.941406 302.019531 81.0625 301.917969 81.171875 C 301.605469 81.53125 301.292969 81.90625 300.976562 82.285156 C 300.863281 82.433594 300.75 82.570312 300.632812 82.714844 C 300.234375 83.210938 299.839844 83.726562 299.441406 84.261719 C 294.699219 90.695312 292.25 96.472656 290.972656 100.785156 C 291.132812 94.972656 292.226562 87.621094 293.3125 80.183594 C 293.328125 80.105469 293.335938 80.023438 293.351562 79.945312 C 294.515625 72.019531 295.664062 64.03125 295.664062 57.75 C 295.664062 57.023438 295.640625 56.328125 295.59375 55.65625 C 295.585938 55.53125 295.578125 55.417969 295.570312 55.296875 C 295.523438 54.644531 295.464844 54.011719 295.386719 53.398438 C 295.378906 53.304688 295.363281 53.222656 295.347656 53.128906 C 295.171875 51.8125 294.929688 50.605469 294.628906 49.480469 C 294.628906 49.480469 294.628906 49.472656 294.628906 49.472656 C 292.226562 40.574219 286.507812 37.5 286.507812 37.5 C 286.667969 40.125 286.699219 42.511719 286.644531 44.714844 C 286.269531 59.273438 281.679688 65.410156 279.363281 73.558594 C 279.347656 73.625 279.324219 73.695312 279.308594 73.757812 C 279.230469 74.046875 279.148438 74.339844 279.078125 74.628906 C 279.050781 74.742188 279.027344 74.859375 278.996094 74.972656 C 278.933594 75.226562 278.871094 75.476562 278.820312 75.738281 C 278.789062 75.875 278.757812 76.011719 278.734375 76.152344 C 278.6875 76.394531 278.636719 76.640625 278.589844 76.886719 C 278.558594 77.039062 278.535156 77.191406 278.511719 77.335938 C 278.476562 77.582031 278.4375 77.828125 278.398438 78.078125 C 278.375 78.238281 278.351562 78.402344 278.328125 78.5625 C 278.300781 78.8125 278.269531 79.082031 278.238281 79.339844 C 278.222656 79.503906 278.199219 79.664062 278.191406 79.824219 C 278.167969 80.113281 278.144531 80.40625 278.132812 80.703125 C 278.125 80.847656 278.109375 80.988281 278.101562 81.132812 C 278.078125 81.574219 278.0625 82.027344 278.054688 82.492188 C 278.015625 85.347656 278.175781 88.03125 278.46875 90.511719 C 277.808594 89.097656 277.074219 87.6875 276.242188 86.3125 C 275.964844 85.851562 275.675781 85.394531 275.386719 84.941406 C 274.996094 84.351562 274.613281 83.792969 274.230469 83.242188 C 274.128906 83.097656 274.03125 82.960938 273.933594 82.824219 C 273.59375 82.347656 273.257812 81.890625 272.929688 81.445312 C 272.882812 81.390625 272.84375 81.332031 272.800781 81.269531 C 272.410156 80.75 272.027344 80.257812 271.644531 79.769531 C 271.582031 79.695312 271.53125 79.625 271.46875 79.546875 C 271.101562 79.082031 270.734375 78.628906 270.375 78.195312 C 270.367188 78.1875 270.367188 78.179688 270.359375 78.179688 C 268.632812 76.082031 267 74.238281 265.535156 72.417969 C 265.488281 72.363281 265.449219 72.308594 265.410156 72.257812 C 265.042969 71.796875 264.683594 71.339844 264.339844 70.878906 C 264.257812 70.765625 264.171875 70.65625 264.085938 70.542969 C 263.925781 70.328125 263.773438 70.105469 263.621094 69.894531 C 263.507812 69.730469 263.398438 69.570312 263.285156 69.410156 C 263.148438 69.203125 263 68.996094 262.863281 68.792969 C 261.457031 66.617188 260.308594 64.261719 259.515625 61.332031 C 259.515625 61.332031 258.511719 66.398438 259.015625 73.273438 C 259.015625 73.273438 259.015625 73.28125 259.015625 73.28125 C 259.085938 74.238281 259.191406 75.234375 259.324219 76.25 C 259.335938 76.371094 259.351562 76.496094 259.375 76.617188 C 259.429688 76.992188 259.492188 77.367188 259.550781 77.742188 C 259.574219 77.886719 259.597656 78.035156 259.628906 78.1875 C 259.703125 78.605469 259.78125 79.027344 259.875 79.457031 C 259.886719 79.539062 259.902344 79.625 259.925781 79.714844 C 260.035156 80.214844 260.148438 80.710938 260.269531 81.214844 C 260.308594 81.375 260.355469 81.542969 260.402344 81.707031 C 260.492188 82.058594 260.59375 82.410156 260.691406 82.769531 C 260.746094 82.960938 260.800781 83.144531 260.859375 83.335938 C 260.96875 83.703125 261.089844 84.0625 261.210938 84.429688 C 261.265625 84.589844 261.3125 84.742188 261.371094 84.902344 C 261.546875 85.417969 261.738281 85.921875 261.9375 86.433594 C 261.984375 86.554688 262.039062 86.679688 262.089844 86.800781 C 262.253906 87.199219 262.429688 87.605469 262.605469 88.003906 C 262.679688 88.179688 262.765625 88.347656 262.839844 88.523438 C 263.007812 88.890625 263.191406 89.257812 263.375 89.625 C 263.460938 89.785156 263.539062 89.945312 263.621094 90.105469 C 263.898438 90.617188 264.179688 91.132812 264.476562 91.644531 C 270.3125 101.453125 273.351562 103.441406 275.578125 105.492188 L 262.632812 105.492188 C 260.914062 105.492188 259.515625 106.890625 259.515625 108.613281 C 259.515625 110.335938 260.914062 111.734375 262.632812 111.734375 L 262.632812 128.039062 C 262.632812 132.910156 264.820312 137.257812 268.273438 140.179688 C 268.273438 140.179688 268.265625 140.179688 268.265625 140.179688 C 268.394531 140.292969 268.539062 140.394531 268.667969 140.5 C 268.84375 140.636719 269.019531 140.785156 269.195312 140.914062 C 269.394531 141.058594 269.601562 141.195312 269.816406 141.335938 C 269.960938 141.425781 270.101562 141.527344 270.246094 141.617188 C 270.480469 141.761719 270.726562 141.902344 270.972656 142.039062 C 271.09375 142.101562 271.207031 142.167969 271.332031 142.230469 C 271.605469 142.367188 271.882812 142.503906 272.164062 142.628906 C 272.257812 142.667969 272.355469 142.710938 272.449219 142.75 C 272.761719 142.878906 273.074219 143.003906 273.394531 143.109375 C 273.417969 143.117188 273.433594 143.125 273.457031 143.132812 L 17.40625 143.132812 C 8.179688 143.101562 0.675781 150.609375 0.675781 159.828125 L 0.675781 305.066406 C 0.675781 314.292969 8.179688 321.792969 17.40625 321.792969 L 49.109375 321.792969 L 49.109375 326.242188 C 49.109375 328.746094 51.136719 330.773438 53.636719 330.773438 L 102.140625 330.773438 C 104.640625 330.773438 106.667969 328.746094 106.667969 326.242188 L 106.667969 321.792969 L 266.636719 321.792969 L 266.636719 326.242188 C 266.636719 328.746094 268.660156 330.773438 271.164062 330.773438 L 319.664062 330.773438 C 322.164062 330.773438 324.191406 328.746094 324.191406 326.242188 L 324.191406 321.792969 L 357.609375 321.792969 C 366.835938 321.792969 374.339844 314.285156 374.339844 305.066406 L 374.339844 159.835938 C 374.339844 150.609375 366.835938 143.101562 357.617188 143.101562 Z M 265.929688 306.464844 L 17.40625 306.464844 C 16.632812 306.464844 16.003906 305.839844 16.003906 305.066406 L 16.003906 159.828125 C 16.003906 159.054688 16.632812 158.425781 17.40625 158.425781 L 357.617188 158.425781 C 358.390625 158.425781 359.015625 159.054688 359.015625 159.828125 L 359.015625 305.066406 C 359.015625 305.839844 358.390625 306.464844 357.617188 306.464844 Z M 265.929688 306.464844 " fill-opacity="1" fill-rule="nonzero"/></g><g clip-path="url(#e6ad2ecf96)"><path fill="#335c76" d="M 321.246094 82.179688 C 314.792969 92.515625 297.199219 102.09375 295.640625 109.667969 L 289.566406 108.597656 L 278.039062 108.597656 C 275.363281 103.738281 272.699219 105.476562 264.460938 91.628906 C 256.226562 77.78125 259.5 61.339844 259.5 61.339844 C 262.105469 70.917969 268.46875 74.484375 275.378906 84.949219 C 276.570312 86.753906 277.582031 88.644531 278.46875 90.527344 C 278.175781 88.039062 278.015625 85.355469 278.054688 82.5 C 278.277344 66.910156 288.074219 63.121094 286.515625 37.507812 C 286.515625 37.507812 295.648438 42.402344 295.648438 57.773438 C 295.648438 70 291.292969 88.730469 290.964844 100.808594 C 292.242188 96.496094 294.691406 90.71875 299.433594 84.285156 C 309.453125 70.695312 320.589844 69.355469 324.820312 55.777344 C 324.8125 55.761719 327.703125 71.84375 321.246094 82.179688 Z M 321.246094 82.179688 " fill-opacity="1" fill-rule="nonzero"/></g><path fill="#9fc346" d="M 321.246094 82.179688 C 314.792969 92.515625 297.199219 102.09375 295.640625 109.667969 L 293.246094 109.246094 C 294.492188 106.308594 297.128906 101.855469 302.652344 97.257812 C 312.160156 89.339844 328.367188 78.644531 324.8125 55.769531 C 324.8125 55.761719 327.703125 71.84375 321.246094 82.179688 Z M 308.734375 76.65625 C 314.308594 71.675781 317.597656 67.902344 319.566406 65.082031 C 314.195312 71.140625 306.539062 74.628906 299.425781 84.269531 C 294.683594 90.703125 292.234375 96.480469 290.957031 100.792969 C 291.285156 88.722656 295.640625 69.984375 295.640625 57.757812 C 295.640625 51.363281 294.054688 46.796875 292.203125 43.628906 C 295.355469 51.8125 294.773438 61.0625 290.851562 76.003906 C 287.277344 89.617188 288.320312 102.777344 289.078125 108.589844 L 291.625 108.589844 C 291.234375 107.265625 291.027344 105.628906 290.957031 103.785156 C 294.332031 93.992188 301.039062 83.527344 308.734375 76.65625 Z M 278.046875 82.492188 C 278.007812 85.347656 278.167969 88.03125 278.460938 90.511719 C 277.582031 88.628906 276.5625 86.746094 275.378906 84.941406 C 270.582031 77.664062 266.046875 73.726562 262.847656 68.785156 C 263.910156 70.828125 265.496094 73.28125 267.898438 76.113281 C 275.378906 84.941406 278.046875 89.625 283.613281 108.589844 C 283.613281 108.589844 283.066406 103.210938 280.871094 96.601562 C 277.917969 75.410156 282.773438 68.324219 285.832031 60.375 C 287.882812 55.058594 287.441406 49.015625 286.644531 44.707031 C 286.15625 64 278.246094 68.5 278.046875 82.492188 Z M 263.308594 82.714844 C 262.253906 78.585938 260.125 73.542969 258.925781 66.640625 C 258.617188 72.617188 259.125 82.648438 264.453125 91.621094 C 272.691406 105.46875 275.355469 103.730469 278.03125 108.589844 L 279.355469 108.589844 C 277.601562 105.292969 274.304688 99.546875 270.765625 95.714844 C 265.546875 90.074219 264.59375 87.71875 263.308594 82.714844 Z M 263.308594 82.714844 " fill-opacity="1" fill-rule="nonzero"/><g clip-path="url(#d607f9bb5e)"><path fill="#d84348" d="M 317.023438 111.71875 L 262.621094 111.71875 C 260.898438 111.71875 259.5 110.320312 259.5 108.597656 C 259.5 106.875 260.898438 105.476562 262.621094 105.476562 L 317.023438 105.476562 C 318.746094 105.476562 320.144531 106.875 320.144531 108.597656 C 320.144531 110.320312 318.746094 111.71875 317.023438 111.71875 Z M 278.550781 143.953125 L 300.582031 143.953125 C 309.375 143.953125 316.511719 136.8125 316.511719 128.015625 C 310.164062 137.496094 282.882812 139.675781 268.242188 140.15625 C 271.019531 142.519531 274.613281 143.953125 278.550781 143.953125 Z M 49.101562 326.242188 C 49.101562 328.746094 51.128906 330.773438 53.628906 330.773438 L 102.132812 330.773438 C 104.632812 330.773438 106.660156 328.746094 106.660156 326.242188 L 106.660156 321.792969 L 49.101562 321.792969 Z M 266.636719 321.792969 L 266.636719 326.242188 C 266.636719 328.746094 268.660156 330.773438 271.164062 330.773438 L 319.664062 330.773438 C 322.164062 330.773438 324.191406 328.746094 324.191406 326.242188 L 324.191406 321.792969 Z M 266.636719 321.792969 " fill-opacity="1" fill-rule="nonzero"/></g><path fill="#ffffff" d="M 362.046875 207.636719 C 362.109375 207.757812 362.167969 207.878906 362.238281 208.011719 C 362.175781 208.054688 362.113281 208.09375 362.054688 208.140625 C 361.984375 208.019531 361.910156 207.902344 361.855469 207.773438 C 361.847656 207.75 361.976562 207.679688 362.046875 207.636719 Z M 363.214844 222.8125 C 363.269531 222.808594 363.324219 222.808594 363.386719 222.800781 C 363.492188 222.484375 363.605469 222.171875 363.773438 221.691406 C 363.445312 221.691406 363.246094 221.691406 362.964844 221.691406 C 363.054688 222.125 363.132812 222.46875 363.214844 222.8125 Z M 362.0625 197.667969 C 361.894531 197.875 361.753906 198.027344 361.566406 198.261719 C 362.136719 198.1875 362.136719 198.1875 362.0625 197.667969 Z M 369.65625 188.449219 C 369.71875 188.371094 369.777344 188.300781 369.839844 188.226562 C 369.625 188.035156 369.417969 187.835938 369.207031 187.644531 C 369.023438 188.25 369.242188 188.433594 369.65625 188.449219 Z M 363.316406 189.984375 C 363.140625 190.460938 363.164062 190.804688 363.757812 190.894531 C 363.589844 190.613281 363.84375 190.125 363.316406 189.984375 Z M 359.253906 216.824219 C 359.453125 216.894531 359.644531 216.953125 359.84375 217.023438 C 359.867188 216.945312 359.890625 216.871094 359.914062 216.792969 C 359.714844 216.738281 359.515625 216.679688 359.316406 216.625 C 359.300781 216.6875 359.277344 216.753906 359.253906 216.824219 Z M 357.800781 310.382812 C 357.929688 310.683594 358.0625 310.980469 358.246094 311.417969 C 358.71875 310.699219 358.269531 310.515625 357.800781 310.382812 Z M 152.996094 151.90625 C 152.988281 151.90625 153.042969 152.015625 153.066406 152.070312 C 153.1875 152.007812 153.308594 151.945312 153.425781 151.886719 C 153.402344 151.832031 153.371094 151.777344 153.347656 151.722656 C 153.234375 151.785156 153.109375 151.839844 152.996094 151.90625 Z M 366.972656 182.953125 C 366.628906 183.429688 367.003906 183.636719 367.1875 183.878906 C 367.515625 184.324219 367.578125 184.738281 367.125 185.148438 C 367.042969 185.226562 367.003906 185.355469 366.933594 185.480469 C 367.085938 185.59375 367.1875 185.671875 367.285156 185.746094 C 368.296875 184.484375 368.226562 183.796875 366.972656 182.953125 Z M 365.960938 224.160156 C 365.617188 224.453125 365.265625 224.742188 364.921875 225.039062 C 365.503906 225.1875 365.503906 225.1875 365.960938 224.160156 Z M 363.589844 161.59375 C 363.054688 161.746094 362.664062 161.761719 362.566406 162.328125 C 363.1875 162.289062 363.1875 162.289062 363.589844 161.59375 Z M 364.5625 245.140625 C 364.816406 244.957031 364.984375 244.832031 365.234375 244.640625 C 364.730469 244.488281 364.546875 244.589844 364.5625 245.140625 Z M 365.320312 263.984375 C 365.351562 263.984375 365.382812 263.976562 365.410156 263.976562 C 365.410156 263.828125 365.410156 263.691406 365.410156 263.546875 C 365.375 263.546875 365.328125 263.554688 365.289062 263.554688 C 365.296875 263.699219 365.3125 263.84375 365.320312 263.984375 Z M 358.0625 311.816406 C 358.136719 312.007812 358.199219 312.183594 358.269531 312.351562 C 358.480469 311.882812 358.480469 311.882812 358.0625 311.816406 Z M 293.199219 79.777344 C 293.222656 79.921875 293.246094 80.066406 293.261719 80.214844 C 293.269531 80.207031 293.285156 80.207031 293.289062 80.199219 C 293.3125 80.0625 293.328125 79.914062 293.351562 79.777344 C 293.34375 79.761719 293.34375 79.753906 293.335938 79.738281 C 293.296875 79.746094 293.246094 79.761719 293.199219 79.777344 Z M 294.222656 105.539062 C 294.996094 105.421875 295.113281 104.847656 295.316406 104.3125 C 294.921875 104.144531 294.566406 103.992188 294.0625 103.769531 C 294.117188 104.414062 294.171875 104.949219 294.222656 105.539062 Z M 294.546875 97.160156 C 295.035156 97.097656 295.179688 96.871094 295.132812 96.53125 C 295.125 96.457031 294.929688 96.332031 294.835938 96.347656 C 294.339844 96.425781 294.613281 96.800781 294.546875 97.160156 Z M 341.832031 158.089844 C 341.824219 158.226562 341.816406 158.320312 341.808594 158.425781 L 343.734375 158.425781 C 343.757812 158.371094 343.773438 158.3125 343.773438 158.226562 C 343.117188 157.828125 342.511719 158.785156 341.832031 158.089844 Z M 147.71875 148.566406 C 147.773438 148.566406 147.816406 148.566406 147.871094 148.566406 C 147.902344 148.503906 147.972656 148.433594 147.957031 148.394531 C 147.910156 148.289062 147.824219 148.191406 147.757812 148.089844 C 147.742188 148.25 147.734375 148.402344 147.71875 148.566406 Z M 124.847656 157.269531 C 125.429688 157.125 125.867188 157.019531 126.484375 156.867188 C 126.316406 156.628906 126.195312 156.351562 126.125 156.367188 C 125.621094 156.453125 125.167969 156.652344 124.847656 157.269531 Z M 326.699219 145.632812 C 326.753906 145.796875 326.808594 145.957031 326.863281 146.125 C 326.921875 146.101562 326.984375 146.085938 327.046875 146.0625 C 326.992188 145.902344 326.9375 145.742188 326.882812 145.582031 C 326.816406 145.597656 326.753906 145.621094 326.699219 145.632812 Z M 338.105469 156.40625 C 338.519531 156.085938 338.617188 155.839844 338.367188 155.351562 C 338.265625 155.75 338.203125 156 338.105469 156.40625 Z M 358.34375 313.039062 C 358.375 313.320312 358.453125 313.535156 359.046875 313.222656 C 358.855469 313.023438 358.734375 312.894531 358.613281 312.769531 C 358.519531 312.855469 358.429688 312.945312 358.34375 313.039062 Z M 295.90625 97.542969 C 295.929688 97.609375 295.953125 97.671875 295.976562 97.742188 C 296.183594 97.679688 296.390625 97.617188 296.585938 97.550781 C 296.566406 97.472656 296.535156 97.398438 296.511719 97.320312 C 296.3125 97.398438 296.113281 97.472656 295.90625 97.542969 Z M 343.078125 150.085938 C 342.933594 150.011719 342.824219 149.933594 342.71875 149.917969 C 342.648438 149.910156 342.574219 150.003906 342.496094 150.050781 C 342.609375 150.148438 342.71875 150.253906 342.847656 150.332031 C 342.863281 150.347656 342.960938 150.21875 343.078125 150.085938 Z M 309.339844 107.335938 C 309.691406 107.296875 309.980469 107.257812 310.441406 107.207031 C 309.675781 106.808594 309.675781 106.808594 309.339844 107.335938 Z M 310.15625 117.886719 C 310.453125 118.304688 310.746094 118.414062 311.042969 118.085938 C 311.027344 117.984375 311.019531 117.878906 311.003906 117.777344 C 310.722656 117.816406 310.441406 117.847656 310.15625 117.886719 Z M 367.769531 254.609375 C 367.644531 254.671875 367.507812 254.777344 367.46875 254.902344 C 367.445312 254.976562 367.589844 255.109375 367.707031 255.277344 C 367.835938 255.09375 367.957031 254.976562 367.996094 254.839844 C 368.003906 254.785156 367.796875 254.59375 367.769531 254.609375 Z M 303.632812 328.226562 C 303.6875 328.09375 303.65625 327.941406 303.671875 327.699219 C 303.417969 327.910156 303.257812 328.058594 303.074219 328.21875 C 303.539062 328.378906 303.5625 328.386719 303.632812 328.226562 Z M 283.125 314.644531 C 283.277344 314.722656 283.4375 314.789062 283.59375 314.867188 C 283.621094 314.804688 283.644531 314.746094 283.675781 314.691406 C 283.523438 314.613281 283.363281 314.546875 283.210938 314.46875 C 283.179688 314.523438 283.15625 314.585938 283.125 314.644531 Z M 293.574219 328.179688 C 293.871094 327.964844 294.140625 327.773438 294.4375 327.558594 C 293.664062 327.148438 293.65625 327.152344 293.574219 328.179688 Z M 103.738281 326.75 C 103.851562 326.878906 103.96875 327.015625 104.082031 327.148438 C 104.128906 327.109375 104.171875 327.078125 104.21875 327.039062 C 104.144531 326.902344 104.066406 326.765625 103.988281 326.625 C 103.898438 326.664062 103.820312 326.710938 103.738281 326.75 Z M 66.808594 312.871094 C 66.863281 313.320312 66.902344 313.667969 66.960938 314.195312 C 67.230469 313.949219 67.503906 313.804688 67.503906 313.667969 C 67.503906 313.300781 67.261719 313.046875 66.808594 312.871094 Z M 71.304688 311.851562 C 71.191406 311.992188 71.078125 312.128906 70.960938 312.265625 C 71.007812 312.304688 71.046875 312.34375 71.09375 312.378906 C 71.207031 312.242188 71.320312 312.105469 71.4375 311.96875 C 71.398438 311.921875 71.351562 311.882812 71.304688 311.851562 Z M 345.433594 321.792969 L 346.046875 321.792969 C 346.113281 321.699219 346.175781 321.609375 346.25 321.5 C 346.234375 321.277344 346.207031 320.917969 346.152344 320.351562 C 345.816406 320.894531 345.425781 321.308594 345.433594 321.792969 Z M 71.351562 320.152344 C 71.398438 320.183594 71.453125 320.214844 71.496094 320.238281 C 71.574219 320.09375 71.652344 319.941406 71.726562 319.792969 C 71.671875 319.769531 71.566406 319.71875 71.566406 319.71875 C 71.484375 319.863281 71.421875 320.007812 71.351562 320.152344 Z M 273.945312 310.015625 C 273.855469 310.007812 273.75 310.125 273.648438 310.183594 C 273.726562 310.285156 273.769531 310.4375 273.871094 310.476562 C 273.9375 310.507812 274.070312 310.390625 274.269531 310.300781 C 274.117188 310.160156 274.039062 310.03125 273.945312 310.015625 Z M 371.003906 257.664062 C 370.988281 257.753906 370.980469 257.847656 370.964844 257.9375 C 371.140625 257.953125 371.316406 257.960938 371.492188 257.976562 C 371.492188 257.886719 371.507812 257.710938 371.484375 257.703125 C 371.332031 257.671875 371.171875 257.671875 371.003906 257.664062 Z M 342.3125 320.871094 C 342.578125 320.511719 342.6875 320.222656 342.410156 319.625 C 342.191406 320.167969 342.058594 320.460938 342.3125 320.871094 Z M 321.769531 311.210938 C 321.820312 311.355469 321.875 311.492188 321.929688 311.636719 C 321.964844 311.625 322.011719 311.617188 322.050781 311.601562 C 322.011719 311.453125 321.964844 311.300781 321.929688 311.15625 C 321.882812 311.179688 321.828125 311.195312 321.769531 311.210938 Z M 323.917969 327.34375 C 323.957031 327.351562 323.992188 327.351562 324.039062 327.359375 C 324.054688 327.300781 324.085938 327.246094 324.09375 327.175781 C 324.117188 326.917969 324.140625 326.664062 324.167969 326.40625 C 324.109375 326.398438 324.054688 326.390625 323.992188 326.390625 C 323.96875 326.710938 323.949219 327.03125 323.917969 327.34375 Z M 348.285156 320.046875 C 348.054688 320.695312 347.414062 320.78125 346.957031 321.164062 C 347.5 321.101562 348.054688 321.078125 348.585938 320.957031 C 348.753906 320.917969 348.882812 320.628906 348.972656 320.429688 C 349.011719 320.34375 348.921875 320.125 348.84375 320.09375 C 348.660156 320.03125 348.300781 320 348.285156 320.046875 Z M 281.496094 114.816406 C 281.671875 115.054688 281.789062 115.214844 281.972656 115.476562 C 282.0625 115.015625 282.070312 114.78125 281.496094 114.816406 Z M 279.507812 115.667969 C 279.5625 115.71875 279.613281 115.765625 279.667969 115.820312 C 279.828125 115.675781 279.988281 115.527344 280.144531 115.375 C 280.066406 115.308594 279.988281 115.230469 279.914062 115.160156 C 279.78125 115.335938 279.644531 115.507812 279.507812 115.667969 Z M 304.265625 81.574219 C 304.335938 81.046875 304.375 80.75 304.414062 80.441406 C 304.3125 80.429688 304.207031 80.414062 304.105469 80.398438 C 303.632812 80.6875 303.816406 81.007812 304.265625 81.574219 Z M 76.804688 309.824219 C 76.417969 309.847656 76.0625 309.863281 75.71875 309.886719 C 76.0625 309.863281 76.492188 310.652344 76.804688 309.824219 Z M 312.253906 81 C 312.289062 81.230469 312.320312 81.460938 312.359375 81.683594 C 312.453125 81.667969 312.542969 81.660156 312.640625 81.644531 C 312.613281 81.414062 312.574219 81.183594 312.542969 80.964844 C 312.445312 80.972656 312.351562 80.988281 312.253906 81 Z M 306.5625 80.71875 C 306.554688 80.726562 306.644531 80.863281 306.667969 80.855469 C 306.785156 80.824219 306.890625 80.773438 307.003906 80.726562 C 306.96875 80.648438 306.929688 80.574219 306.851562 80.441406 C 306.730469 80.558594 306.636719 80.632812 306.5625 80.71875 Z M 286.683594 110.503906 C 286.535156 109.707031 287.484375 109.226562 287.285156 108.191406 C 286.246094 109.085938 286.15625 109.460938 286.683594 110.503906 Z M 278.0625 84.589844 C 278.214844 84.550781 278.359375 84.519531 278.535156 84.476562 C 278.359375 84.34375 278.199219 84.253906 278.054688 84.199219 C 278.0625 84.335938 278.0625 84.46875 278.0625 84.589844 Z M 99.042969 314.78125 C 99.035156 314.804688 99.1875 314.953125 99.234375 314.9375 C 99.332031 314.914062 99.410156 314.8125 99.53125 314.714844 C 99.394531 314.613281 99.277344 314.5 99.253906 314.515625 C 99.15625 314.585938 99.085938 314.683594 99.042969 314.78125 Z M 90.398438 309.511719 C 90.414062 309.535156 90.429688 309.558594 90.445312 309.589844 C 90.679688 309.589844 90.925781 309.589844 91.164062 309.589844 C 91.164062 309.550781 91.164062 309.511719 91.164062 309.472656 C 90.902344 309.480469 90.652344 309.496094 90.398438 309.511719 Z M 94.199219 319.542969 C 94.238281 319.632812 94.285156 319.71875 94.320312 319.808594 C 94.574219 319.695312 94.820312 319.574219 95.070312 319.457031 C 95.035156 319.375 94.996094 319.296875 94.957031 319.210938 C 94.703125 319.328125 94.453125 319.433594 94.199219 319.542969 Z M 268.1875 77.414062 C 268.1875 77.476562 268.195312 77.535156 268.195312 77.597656 C 268.363281 77.589844 268.523438 77.582031 268.691406 77.574219 C 268.691406 77.519531 268.683594 77.46875 268.683594 77.414062 C 268.515625 77.414062 268.355469 77.414062 268.1875 77.414062 Z M 100.960938 313.972656 C 100.898438 314.0625 100.785156 314.171875 100.800781 314.253906 C 100.816406 314.363281 100.945312 314.445312 101.0625 314.585938 C 101.160156 314.429688 101.304688 314.292969 101.28125 314.230469 C 101.222656 314.117188 101.074219 314.046875 100.960938 313.972656 Z M 73.65625 309.296875 C 73.664062 309.375 73.664062 309.449219 73.671875 309.527344 C 74.039062 309.527344 74.40625 309.527344 74.824219 309.527344 C 74.449219 309.066406 74.058594 309.128906 73.65625 309.296875 Z M 21.453125 319.175781 C 21.550781 319.226562 21.652344 319.3125 21.757812 319.328125 C 21.8125 319.335938 21.878906 319.21875 22.011719 319.097656 C 21.828125 319.035156 21.710938 318.976562 21.605469 318.976562 C 21.550781 318.984375 21.496094 319.105469 21.453125 319.175781 Z M 49.964844 306.628906 C 50.257812 306.589844 50.546875 306.542969 50.855469 306.496094 C 50.855469 306.480469 50.855469 306.472656 50.855469 306.464844 L 49.9375 306.464844 C 49.9375 306.503906 49.949219 306.558594 49.964844 306.628906 Z M 23.027344 306.464844 C 22.90625 306.558594 22.789062 306.652344 22.660156 306.75 C 22.898438 306.6875 23.109375 306.636719 23.316406 306.589844 C 23.28125 306.550781 23.242188 306.511719 23.203125 306.472656 L 23.027344 306.472656 Z M 11.609375 195.371094 C 11.722656 195.464844 11.820312 195.585938 11.945312 195.625 C 12.011719 195.640625 12.128906 195.507812 12.289062 195.386719 C 12.082031 195.257812 11.960938 195.148438 11.820312 195.117188 C 11.777344 195.105469 11.683594 195.28125 11.609375 195.371094 Z M 17.144531 320.996094 C 17.238281 321.0625 17.328125 321.195312 17.429688 321.195312 C 17.519531 321.195312 17.613281 321.0625 17.773438 320.925781 C 17.589844 320.828125 17.472656 320.710938 17.390625 320.726562 C 17.289062 320.757812 17.222656 320.902344 17.144531 320.996094 Z M 13.421875 204.910156 C 13.734375 204.550781 14.085938 204.421875 13.839844 203.992188 C 13.351562 204.039062 13.3125 204.316406 13.421875 204.910156 Z M 71.359375 152.988281 C 71.375 152.933594 71.300781 152.839844 71.261719 152.765625 C 71.160156 152.820312 71.0625 152.863281 70.96875 152.917969 C 71.015625 152.988281 71.0625 153.0625 71.128906 153.164062 C 71.230469 153.085938 71.335938 153.046875 71.359375 152.988281 Z M 15.433594 204.898438 C 15.5 204.988281 15.585938 205.101562 15.683594 205.140625 C 15.738281 205.164062 15.84375 205.101562 15.996094 205.035156 L 15.996094 204.933594 C 15.753906 204.828125 15.625 204.773438 15.523438 204.742188 C 15.507812 204.742188 15.417969 204.882812 15.433594 204.898438 Z M 29.253906 152.367188 C 29.191406 152.375 29.136719 152.429688 28.925781 152.550781 C 29.167969 152.964844 29.453125 153.101562 29.84375 152.996094 C 29.917969 152.972656 30.003906 152.765625 29.980469 152.65625 C 29.886719 152.230469 29.542969 152.34375 29.253906 152.367188 Z M 153.285156 148.3125 C 153.058594 148.417969 153.035156 148.75 153.226562 148.71875 C 153.371094 148.695312 153.5 148.527344 153.636719 148.417969 C 153.609375 148.375 153.570312 148.320312 153.539062 148.273438 C 153.453125 148.28125 153.363281 148.273438 153.285156 148.3125 Z M 39.417969 316.167969 C 39.488281 316.253906 39.570312 316.421875 39.617188 316.40625 C 39.722656 316.375 39.832031 316.28125 39.902344 316.191406 C 39.914062 316.167969 39.816406 316.046875 39.730469 315.921875 C 39.609375 316.015625 39.511719 316.089844 39.417969 316.167969 Z M 36.679688 146.941406 C 36.726562 146.980469 36.78125 147.011719 36.824219 147.050781 C 36.949219 146.890625 37.070312 146.730469 37.199219 146.566406 C 37.148438 146.53125 37.085938 146.484375 37.03125 146.445312 C 36.917969 146.605469 36.796875 146.773438 36.679688 146.941406 Z M 39.527344 310.414062 C 39.546875 310.5 39.570312 310.589844 39.59375 310.675781 C 39.746094 310.621094 39.90625 310.566406 40.0625 310.5 C 40.070312 310.492188 40.015625 310.339844 39.984375 310.253906 C 39.832031 310.308594 39.679688 310.359375 39.527344 310.414062 Z M 123.722656 158.121094 C 123.898438 158.21875 124.074219 158.328125 124.25 158.425781 L 124.257812 158.425781 C 124.289062 158.363281 124.320312 158.3125 124.351562 158.25 C 124.183594 158.152344 124.015625 158.058594 123.847656 157.960938 C 123.800781 158.011719 123.761719 158.066406 123.722656 158.121094 Z M 30.9375 316.3125 C 30.972656 316.351562 31.011719 316.390625 31.050781 316.421875 C 31.1875 316.296875 31.332031 316.175781 31.472656 316.054688 C 31.433594 316 31.394531 315.953125 31.347656 315.898438 C 31.210938 316.046875 31.074219 316.175781 30.9375 316.3125 Z M 369.113281 256.15625 C 368.992188 256.363281 368.875 256.570312 368.65625 256.960938 C 369.058594 257.097656 369.34375 257.234375 369.640625 257.265625 C 369.710938 257.273438 369.902344 256.867188 369.878906 256.667969 C 369.832031 256.277344 369.527344 256.132812 369.113281 256.15625 Z M 265.929688 306.464844 Z M 369.75 264.488281 C 369.808594 264.496094 369.871094 264.496094 369.941406 264.503906 C 369.957031 264.328125 369.96875 264.152344 369.984375 263.976562 C 369.925781 263.96875 369.863281 263.96875 369.800781 263.960938 C 369.777344 264.128906 369.765625 264.3125 369.75 264.488281 Z M 374.277344 222.066406 C 374.191406 222.300781 374.125 222.515625 373.992188 222.882812 C 374.148438 222.808594 374.253906 222.753906 374.34375 222.707031 L 374.34375 222.101562 C 374.316406 222.085938 374.300781 222.078125 374.277344 222.066406 Z M 3.613281 174.460938 C 3.628906 174.792969 3.652344 175.113281 3.667969 175.441406 C 3.972656 175.097656 4.125 174.769531 3.613281 174.460938 Z M 106.015625 316.382812 C 106.445312 316.382812 106.707031 316.382812 106.980469 316.382812 C 106.589844 316.097656 106.589844 316.097656 106.015625 316.382812 Z M 159.488281 309.121094 C 159.535156 309.144531 159.574219 309.175781 159.621094 309.199219 C 159.75 309.03125 159.878906 308.855469 160.019531 308.683594 C 159.957031 308.640625 159.894531 308.59375 159.835938 308.546875 C 159.71875 308.738281 159.605469 308.929688 159.488281 309.121094 Z M 133.835938 310.351562 C 133.914062 310.582031 133.980469 310.8125 134.058594 311.042969 C 134.140625 311.019531 134.226562 310.996094 134.308594 310.972656 C 134.21875 310.742188 134.125 310.515625 134.035156 310.277344 C 133.972656 310.300781 133.90625 310.332031 133.835938 310.351562 Z M 143.589844 314.753906 C 143.640625 314.761719 143.695312 314.769531 143.75 314.777344 C 143.800781 314.554688 143.855469 314.339844 143.910156 314.117188 C 143.816406 314.101562 143.726562 314.085938 143.625 314.078125 C 143.617188 314.292969 143.601562 314.523438 143.589844 314.753906 Z M 227.617188 320.878906 C 227.394531 320.652344 227.242188 320.492188 227.089844 320.335938 C 226.945312 320.851562 227.050781 321.054688 227.617188 320.878906 Z M 145.355469 316.121094 C 145.371094 315.585938 145.125 315.003906 145.601562 314.644531 C 146.488281 314.402344 145.960938 315.65625 146.714844 315.570312 C 146.753906 315.113281 146.785156 314.691406 146.824219 314.171875 C 146.25 314.269531 145.753906 314.363281 145.210938 314.460938 C 144.675781 315.570312 144.675781 315.570312 145.355469 316.121094 Z M 137.414062 314.039062 C 137.363281 314.019531 137.195312 314.117188 137.1875 314.179688 C 137.125 314.515625 137.300781 314.667969 137.621094 314.683594 C 137.867188 314.355469 137.699219 314.164062 137.414062 314.039062 Z M 137.429688 320.199219 C 137.476562 320.238281 137.554688 320.316406 137.5625 320.308594 C 137.675781 320.214844 137.773438 320.117188 137.882812 320.015625 C 137.835938 319.953125 137.78125 319.894531 137.738281 319.832031 C 137.628906 319.953125 137.53125 320.078125 137.429688 320.199219 Z M 26.398438 150.980469 C 26.929688 151.121094 27.164062 151.050781 27.171875 150.601562 C 27.171875 150.523438 27.082031 150.445312 26.988281 150.292969 C 26.796875 150.515625 26.644531 150.691406 26.398438 150.980469 Z M 256.796875 148.207031 C 256.867188 148.769531 256.84375 149.359375 256.371094 149.703125 C 256.070312 149.925781 255.726562 149.972656 255.710938 150.460938 C 255.703125 150.804688 255.527344 151.152344 255.414062 151.539062 C 255.582031 151.496094 255.6875 151.488281 255.695312 151.457031 C 255.941406 150.355469 257.28125 149.765625 257.082031 148.433594 C 257.058594 148.257812 257.363281 148.027344 257.625 147.691406 C 257.027344 147.601562 256.730469 147.652344 256.796875 148.207031 Z M 255.03125 144.65625 C 255.199219 144.515625 255.335938 144.402344 255.589844 144.1875 C 255 144.050781 254.824219 144.148438 255.03125 144.65625 Z M 251.46875 154.675781 C 251.527344 154.699219 251.582031 154.722656 251.644531 154.746094 C 251.710938 154.5625 251.78125 154.371094 251.851562 154.1875 C 251.804688 154.164062 251.75 154.148438 251.703125 154.125 C 251.621094 154.316406 251.542969 154.5 251.46875 154.675781 Z M 267.957031 148.488281 C 268.035156 148.390625 268.101562 148.289062 268.195312 148.160156 C 267.566406 148.050781 267.566406 148.050781 267.445312 149.566406 C 267.851562 149.484375 268.132812 149.421875 268.644531 149.316406 C 268.179688 149.09375 267.949219 148.992188 267.660156 148.855469 C 267.796875 148.679688 267.882812 148.585938 267.957031 148.488281 Z M 249.65625 158.1875 C 249.65625 158.25 249.769531 158.320312 249.839844 158.386719 C 249.929688 158.265625 250.023438 158.144531 250.113281 158.019531 C 250.035156 157.976562 249.953125 157.921875 249.816406 157.835938 C 249.746094 157.976562 249.660156 158.082031 249.65625 158.1875 Z M 274.828125 141.976562 C 274.460938 141.519531 274.644531 141.097656 274.667969 140.644531 C 274.671875 140.53125 274.484375 140.402344 274.277344 140.140625 C 274.03125 140.644531 273.847656 141.027344 273.703125 141.34375 C 273.953125 141.929688 274.175781 142.4375 274.46875 143.109375 C 274.636719 142.628906 274.949219 142.121094 274.828125 141.976562 Z M 197.054688 148.839844 C 197.085938 148.816406 197.070312 148.734375 197.078125 148.617188 C 196.855469 148.640625 196.648438 148.664062 196.304688 148.703125 C 196.648438 149.191406 196.863281 148.992188 197.054688 148.839844 Z M 207.859375 151.378906 C 207.992188 151.425781 208.121094 151.472656 208.25 151.519531 C 208.273438 151.441406 208.296875 151.363281 208.320312 151.289062 C 208.183594 151.265625 208.042969 151.234375 207.90625 151.210938 C 207.898438 151.273438 207.882812 151.328125 207.859375 151.378906 Z M 274.820312 157.953125 C 274.84375 158.027344 274.917969 158.089844 274.972656 158.160156 C 275.027344 158.097656 275.085938 158.027344 275.179688 157.921875 C 275.0625 157.859375 274.996094 157.808594 274.910156 157.792969 C 274.886719 157.800781 274.804688 157.914062 274.820312 157.953125 Z M 234.960938 148.296875 C 234.960938 148.304688 235.121094 148.296875 235.121094 148.28125 C 235.144531 148.121094 235.152344 147.953125 235.160156 147.792969 C 235.074219 147.792969 234.984375 147.785156 234.898438 147.785156 C 234.921875 147.953125 234.9375 148.121094 234.960938 148.296875 Z M 217 150.683594 C 217.007812 150.746094 217.007812 150.796875 217.015625 150.859375 C 217.167969 150.835938 217.332031 150.8125 217.484375 150.796875 C 217.476562 150.746094 217.46875 150.691406 217.460938 150.636719 C 217.308594 150.652344 217.15625 150.667969 217 150.683594 Z M 227.351562 152.464844 C 227.367188 152.40625 227.304688 152.320312 227.25 152.183594 C 227.167969 152.296875 227.097656 152.359375 227.074219 152.4375 C 227.058594 152.472656 227.128906 152.535156 227.160156 152.589844 C 227.234375 152.550781 227.335938 152.519531 227.351562 152.464844 Z M 231.582031 151.242188 C 231.640625 151.257812 231.695312 151.28125 231.757812 151.296875 C 231.808594 151.136719 231.863281 150.96875 231.917969 150.804688 C 231.855469 150.785156 231.792969 150.769531 231.734375 150.746094 C 231.6875 150.914062 231.632812 151.082031 231.582031 151.242188 Z M 268.441406 113.105469 C 268.003906 113.625 268.003906 113.625 268.355469 114.863281 C 268.378906 114.265625 268.410156 113.722656 268.441406 113.105469 Z M 275.355469 101.183594 C 275.523438 101.269531 275.699219 101.351562 275.867188 101.4375 C 275.890625 101.382812 275.921875 101.335938 275.945312 101.285156 C 275.773438 101.191406 275.605469 101.109375 275.4375 101.015625 C 275.40625 101.070312 275.378906 101.128906 275.355469 101.183594 Z M 259.613281 72.867188 C 259.652344 72.984375 259.804688 73.089844 259.925781 73.128906 C 259.972656 73.144531 260.148438 72.976562 260.148438 72.890625 C 260.148438 72.800781 260.011719 72.714844 259.765625 72.425781 C 259.691406 72.632812 259.574219 72.777344 259.613281 72.867188 Z M 276.617188 113.148438 C 276.5625 113.289062 276.496094 113.371094 276.507812 113.441406 C 276.53125 113.507812 276.632812 113.554688 276.699219 113.609375 C 276.738281 113.53125 276.816406 113.449219 276.808594 113.378906 C 276.808594 113.304688 276.714844 113.25 276.617188 113.148438 Z M 273.242188 140.699219 C 273.574219 140.730469 273.726562 140.515625 273.625 140.027344 C 273.394531 140.101562 273.183594 140.179688 272.96875 140.25 C 273.050781 140.410156 273.136719 140.691406 273.242188 140.699219 Z M 110.101562 147.363281 C 109.972656 147.449219 109.804688 147.554688 109.566406 147.707031 C 109.789062 148 109.949219 148.210938 110.117188 148.425781 C 110.476562 147.769531 110.484375 147.539062 110.101562 147.363281 Z M 108.546875 146.453125 C 108.761719 146.691406 108.976562 146.933594 109.3125 147.316406 C 109.351562 146.613281 108.992188 146.5 108.546875 146.453125 Z M 266.089844 120.105469 C 265.9375 120.179688 265.730469 120.386719 265.746094 120.507812 C 265.785156 120.832031 265.902344 121.175781 266.535156 121.320312 C 266.511719 120.921875 266.527344 120.625 266.453125 120.347656 C 266.429688 120.234375 266.160156 120.074219 266.089844 120.105469 Z M 78.039062 154.675781 C 78.472656 154.371094 78.382812 154.132812 78.039062 153.746094 C 78.039062 154.117188 78.039062 154.355469 78.039062 154.675781 Z M 260.644531 82.625 C 260.667969 82.707031 260.691406 82.792969 260.714844 82.867188 C 260.746094 82.851562 260.777344 82.84375 260.804688 82.832031 C 260.769531 82.753906 260.722656 82.675781 260.683594 82.601562 C 260.667969 82.609375 260.660156 82.617188 260.644531 82.625 Z M 272.117188 106.921875 C 272.117188 106.851562 272.019531 106.785156 271.964844 106.714844 C 271.890625 106.792969 271.8125 106.867188 271.738281 106.945312 C 271.796875 107.007812 271.867188 107.066406 271.957031 107.160156 C 272.027344 107.066406 272.117188 106.992188 272.117188 106.921875 Z M 271.90625 112.238281 C 271.90625 112.574219 271.90625 112.859375 271.90625 113.164062 C 272.15625 113.226562 272.386719 113.28125 272.808594 113.386719 C 272.570312 112.8125 272.59375 112.285156 271.90625 112.238281 Z M 266.0625 111.75 C 266.015625 111.75 265.960938 111.75 265.914062 111.742188 C 265.886719 112.039062 265.855469 112.339844 265.824219 112.636719 C 265.902344 112.644531 265.984375 112.644531 266.0625 112.652344 C 266.0625 112.355469 266.0625 112.046875 266.0625 111.75 Z M 266.34375 117.554688 C 267.183594 117 267.183594 117 267.0625 116.242188 C 266.855469 116.625 266.605469 117.089844 266.34375 117.554688 Z M 266.34375 117.554688 " fill-opacity="1" fill-rule="nonzero"/></svg>